{"title":"Tracers 2015 DVDRip x264 (729MB) Pimp4003","uid":11709488,"size":764823920,"categoryP":"video","categoryS":"movies","magnet":"?xt=urn:btih:6c9f16808c172b4abe4281a2dddc9a3346a21115&amp;dn=Tracers+2015+DVDRip+x264+%28729MB%29+Pimp4003&amp;tr=udp%3A%2F%2Ftracker.openbittorrent.com%3A80&amp;tr=udp%3A%2F%2Fopen.demonii.com%3A1337&amp;tr=udp%3A%2F%2Ftracker.coppersurfer.tk%3A6969&amp;tr=udp%3A%2F%2Fexodus.desync.com%3A6969","seeders":5,"leechers":1,"uploader":"shawnmurthy","files":1,"time":1424267647,"description":"SOURCE IS EVIL-DEAD...PIMP4003\n\nSCREENSHOTS GO HERE...pimp4003DOTnet/torrents.php?id=6c9f16808c172b4abe4281a2dddc9a3346a21115\n &lt;a href=&quot;\nhttp://i.imgur.com/J3ny9bJ.jpg&quot; rel=&quot;nofollow&quot; target=&quot;_NEW&quot;&gt;\nhttp://i.imgur.com/J3ny9bJ.jpg&lt;/a&gt;\n &lt;a href=&quot;\nhttp://i.imgur.com/SpsuXOR.png&quot; rel=&quot;nofollow&quot; target=&quot;_NEW&quot;&gt;\nhttp://i.imgur.com/SpsuXOR.png&lt;/a&gt;\n\nPIMP THE ONE AND ONLY PIMPSTER.....PRESENTS\n\nfacebookDOTcom/OfficialPimp4003\n\ntwitterDOTcom/KingPimp4003\n &lt;a href=&quot;\nhttp://i.imgur.com/IvH4rup.jpg&quot; rel=&quot;nofollow&quot; target=&quot;_NEW&quot;&gt;\nhttp://i.imgur.com/IvH4rup.jpg&lt;/a&gt;\n\nTracers 2015 DVDRip x264 (729MB) Pimp4003\n &lt;a href=&quot;\nhttp://www.imdb.com/title/tt2401097/&quot; rel=&quot;nofollow&quot; target=&quot;_NEW&quot;&gt;\nhttp://www.imdb.com/title/tt2401097/&lt;/a&gt;\n\nWanted by the mafia, a new York City bike messenger escapes into the world of parkour after meeting a beautiful stranger.\n\nDirector: Daniel Benmayor\n\nWriters: Leslie Bohem, Matt Johnson, 2 more credits Â»\n\nStars: Taylor Lautner, Marie Avgeropoulos, Rafi Gavron |See full cast and crew Â»\n\nVideo\n\nID : 1\n\nFormat : AVC\n\nFormat/Info : Advanced Video Codec\n\nFormat profile : &lt;a class=&quot;__cf_email__&quot; href=&quot;/cdn-cgi/l/email-protection&quot; data-cfemail=&quot;1558747c7b5559213b25&quot;&gt;[email&amp;#160;protected]&lt;/a&gt;&lt;script cf-hash='f9e31' type=&quot;text/javascript&quot;&gt;\n/* &lt;![CDATA[ */!function(){try{var t=&quot;currentScript&quot;in document?document.currentScript:function(){for(var t=document.getElementsByTagName(&quot;script&quot;),e=t.length;e--;)if(t[e].getAttribute(&quot;cf-hash&quot;))return t[e]}();if(t&amp;&amp;t.previousSibling){var e,r,n,i,c=t.previousSibling,a=c.getAttribute(&quot;data-cfemail&quot;);if(a){for(e=&quot;&quot;,r=parseInt(a.substr(0,2),16),n=2;a.length-n;n+=2)i=parseInt(a.substr(n,2),16)^r,e+=String.fromCharCode(i);e=document.createTextNode(e),c.parentNode.replaceChild(e,c)}}}catch(u){}}();/* ]]&gt; */&lt;/script&gt;\n\nFormat settings, CABAC : Yes\n\nFormat settings, ReFrames : 4 frames\n\nCodec ID : avc1\n\nCodec ID/Info : Advanced Video Coding\n\nDuration : 1h 28mn\n\nBit rate : 989 Kbps\n\nWidth : 640 pixels\n\nHeight : 482 pixels\n\nDisplay aspect ratio : 4:3\n\nFrame rate mode : Variable\n\nFrame rate : 23.976 fps\n\nMinimum frame rate : 23.974 fps\n\nMaximum frame rate : 23.981 fps\n\nColor space : YUV\n\nChroma subsampling : 4:2:0\n\nBit depth : 8 bits\n\nScan type : Progressive\n\nBits/(Pixel*Frame) : 0.134\n\nStream size : 625 MiB (86%)\n\nWriting library : x264 core 130 r2273 b3065e6\n\nEncoding settings : cabac=1 / ref=1 / deblock=1:0:0 / analyse=0x1:0x111 / me=hex / subme=2 / psy=1 / psy_rd=1.00:0.00 / mixed_ref=0 / me_range=16 / chroma_me=1 / trellis=0 / 8x8dct=0 / cqm=0 / deadzone=21,11 / fast_pskip=1 / chroma_qp_offset=0 / threads=3 / lookahead_threads=1 / sliced_threads=0 / nr=0 / decimate=1 / interlaced=0 / bluray_compat=0 / constrained_intra=0 / bframes=3 / b_pyramid=2 / b_adapt=1 / b_bias=0 / direct=1 / weightb=1 / open_gop=0 / weightp=1 / keyint=240 / keyint_min=24 / scenecut=40 / intra_refresh=0 / rc_lookahead=10 / rc=crf / mbtree=1 / crf=20.0 / qcomp=0.60 / qpmin=0 / qpmax=69 / qpstep=4 / vbv_maxrate=20000 / vbv_bufsize=25000 / crf_max=0.0 / nal_hrd=none / ip_ratio=1.40 / aq=1:1.00\n\nEncoded date : UTC 2015-02-18 10:39:33\n\nTagged date : UTC 2015-02-18 12:08:12\n\nColor primaries : BT.601 NTSC\n\nTransfer characteristics : BT.709\n\nMatrix coefficients : BT.601\n\nAudio\n\nID : 2\n\nFormat : AAC\n\nFormat/Info : Advanced Audio Codec\n\nFormat profile : LC\n\nCodec ID : 40\n\nDuration : 1h 28mn\n\nBit rate mode : Variable\n\nBit rate : 160 Kbps\n\nMaximum bit rate : 184 Kbps\n\nChannel(s) : 2 channels\n\nChannel positions : Front: L R\n\nSampling rate : 48.0 KHz\n\nCompression mode : Lossy\n\nStream size : 101 MiB (14%)\n\nEncoded date : UTC 2015-02-18 10:39:33\n\nTagged date : UTC 2015-02-18 12:08:12","torrent":{"xt":"urn:btih:6c9f16808c172b4abe4281a2dddc9a3346a21115","amp;dn":"Tracers+2015+DVDRip+x264+%28729MB%29+Pimp4003","amp;tr":["udp%3A%2F%2Ftracker.openbittorrent.com%3A80","udp%3A%2F%2Fopen.demonii.com%3A1337","udp%3A%2F%2Ftracker.coppersurfer.tk%3A6969","udp%3A%2F%2Fexodus.desync.com%3A6969"],"infoHash":"6c9f16808c172b4abe4281a2dddc9a3346a21115","infoHashBuffer":{"type":"Buffer","data":[108,159,22,128,140,23,43,74,190,66,129,162,221,220,154,51,70,162,17,21]},"announce":[],"urlList":[]}}